<?xml version="1.0" standalone="no"?>
<!DOCTYPE svg PUBLIC "-//W3C//DTD SVG 20010904//EN"
 "http://www.w3.org/TR/2001/REC-SVG-20010904/DTD/svg10.dtd">
<svg version="1.0" xmlns="http://www.w3.org/2000/svg"
 width="128.000000pt" height="128.000000pt" viewBox="0 0 128.000000 128.000000"
 preserveAspectRatio="xMidYMid meet">

<g transform="translate(0.000000,128.000000) scale(0.100000,-0.100000)"
fill="#000000" stroke="none">
<path d="M210 1200 c0 -5 5 -10 10 -10 6 0 10 5 10 10 0 6 -4 10 -10 10 -5 0
-10 -4 -10 -10z"/>
<path d="M850 1200 c0 -5 5 -10 10 -10 6 0 10 5 10 10 0 6 -4 10 -10 10 -5 0
-10 -4 -10 -10z"/>
<path d="M514 1182 c4 -7 3 -12 -2 -12 -5 0 -9 -7 -9 -15 0 -20 4 -19 17 4 7
14 7 22 -2 27 -7 4 -8 3 -4 -4z"/>
<path d="M172 1161 c-11 -7 -10 -9 3 -14 9 -4 14 -3 10 2 -3 5 1 12 7 14 7 3
9 6 3 6 -5 0 -16 -3 -23 -8z"/>
<path d="M812 1161 c-11 -7 -10 -9 3 -14 9 -4 14 -3 10 2 -3 5 1 12 7 14 7 3
9 6 3 6 -5 0 -16 -3 -23 -8z"/>
<path d="M1125 1161 c-7 -12 12 -24 25 -16 11 7 4 25 -10 25 -5 0 -11 -4 -15
-9z"/>
<path d="M131 1119 c-23 -9 -23 -10 -6 -29 16 -18 16 -20 1 -26 -18 -7 -22
-39 -5 -50 6 -3 9 -15 6 -25 -3 -10 -1 -22 4 -25 5 -3 9 2 9 10 0 9 9 16 20
16 12 0 20 -7 20 -17 0 -24 6 -13 13 25 6 30 5 32 -14 22 -24 -13 -59 -4 -59
15 0 10 12 13 40 11 41 -3 48 2 29 21 -14 14 -2 36 14 26 7 -3 3 3 -7 15 -21
24 -29 25 -65 11z"/>
<path d="M451 1119 c-22 -9 -23 -11 -8 -27 15 -17 15 -19 0 -35 -14 -14 -15
-20 -4 -41 7 -13 10 -29 7 -35 -4 -6 -2 -11 3 -11 6 0 11 5 11 10 0 17 28 11
39 -7 9 -16 10 -16 11 4 0 12 3 30 7 40 6 16 5 16 -10 4 -20 -16 -67 -7 -67
14 0 10 10 13 40 10 41 -4 49 2 28 23 -8 8 -8 15 0 25 9 10 9 16 0 25 -14 14
-24 14 -57 1z"/>
<path d="M772 1120 c-20 -8 -21 -12 -10 -31 10 -17 10 -23 1 -26 -16 -6 -17
-39 -2 -49 6 -3 9 -15 6 -25 -3 -10 -1 -22 4 -25 5 -3 9 2 9 10 0 9 9 16 20
16 12 0 20 -7 20 -17 0 -24 6 -13 13 25 6 30 5 32 -14 22 -24 -13 -59 -4 -59
15 0 9 13 12 40 11 42 -1 47 3 29 21 -14 14 -2 36 14 26 7 -3 3 3 -7 15 -21
24 -29 25 -64 12z"/>
<path d="M1091 1119 c-23 -9 -23 -10 -7 -28 16 -18 16 -20 0 -29 -13 -7 -15
-16 -9 -38 5 -16 7 -38 6 -49 -2 -20 -2 -20 14 0 13 16 19 17 34 8 17 -11 19
-8 25 29 4 25 2 45 -5 54 -8 10 -8 18 0 27 8 10 7 17 -1 25 -14 14 -24 14 -57
1z m57 -88 c-2 -10 -14 -16 -33 -16 -19 0 -31 6 -33 16 -2 12 6 16 33 16 27 0
35 -4 33 -16z"/>
<path d="M36 763 c-6 -14 -5 -15 5 -6 7 7 10 15 7 18 -3 3 -9 -2 -12 -12z"/>
<path d="M356 763 c-6 -14 -5 -15 5 -6 7 7 10 15 7 18 -3 3 -9 -2 -12 -12z"/>
<path d="M680 764 c0 -8 5 -12 10 -9 6 3 10 10 10 16 0 5 -4 9 -10 9 -5 0 -10
-7 -10 -16z"/>
<path d="M996 763 c-6 -14 -5 -15 5 -6 7 7 10 15 7 18 -3 3 -9 -2 -12 -12z"/>
<path d="M214 736 c-4 -12 -20 -16 -54 -16 -60 0 -80 -19 -59 -56 11 -22 15
-24 25 -10 15 21 74 22 74 1 0 -8 4 -15 9 -15 13 0 21 53 10 66 -6 7 -3 16 8
25 15 12 16 12 11 -2 -3 -9 -2 -22 3 -30 7 -10 9 -6 7 15 -3 33 -25 46 -34 22z"/>
<path d="M537 735 c-9 -9 -34 -15 -60 -15 -56 0 -76 -19 -57 -55 15 -28 30
-33 30 -10 0 10 11 15 35 15 24 0 35 -5 35 -15 0 -8 6 -15 14 -15 9 0 12 7 9
19 -3 11 2 21 11 24 17 7 22 52 7 62 -5 3 -16 -2 -24 -10z m21 -20 c0 -21 -3
-23 -14 -14 -11 9 -11 15 -3 25 15 19 17 18 17 -11z"/>
<path d="M1170 734 c-7 -8 -30 -14 -53 -14 -53 0 -80 -23 -65 -56 13 -28 23
-31 32 -9 3 10 19 15 42 15 28 0 35 -3 30 -15 -3 -9 0 -15 9 -15 8 0 15 9 15
19 0 10 7 21 15 25 19 7 20 52 1 59 -8 3 -20 -1 -26 -9z m27 -25 c2 -17 -1
-18 -12 -9 -8 7 -12 16 -9 21 9 16 20 10 21 -12z"/>
<path d="M855 731 c-3 -6 -26 -11 -50 -11 -62 0 -93 -34 -61 -66 19 -18 26
-18 26 1 0 10 11 15 35 15 24 0 35 -5 35 -15 0 -8 5 -15 10 -15 6 0 10 7 10
15 0 8 9 19 21 25 13 7 19 19 17 33 -3 23 -32 35 -43 18z m28 -22 c-4 -13 -9
-17 -15 -11 -11 11 -3 32 12 32 4 0 6 -9 3 -21z"/>
<path d="M136 475 c-10 -8 -15 -19 -11 -25 3 -6 -4 -19 -17 -30 -13 -11 -17
-19 -10 -20 7 0 10 -4 7 -10 -3 -5 2 -24 11 -41 12 -25 18 -29 25 -18 7 11 12
12 27 2 17 -10 21 -8 31 13 15 34 14 60 -4 78 -10 9 -11 17 -5 21 12 8 5 22
-18 34 -12 6 -23 5 -36 -4z m4 -89 c0 -3 -4 -8 -10 -11 -5 -3 -10 -1 -10 4 0
6 5 11 10 11 6 0 10 -2 10 -4z"/>
<path d="M451 471 c-7 -5 -11 -15 -9 -22 2 -7 -7 -23 -21 -36 -19 -17 -21 -21
-7 -17 15 6 17 3 13 -12 -7 -23 17 -72 27 -55 4 6 18 8 31 5 14 -3 26 0 31 7
10 17 6 71 -6 83 -4 4 -6 15 -3 23 10 25 -28 41 -56 24z m-1 -91 c0 -5 -5 -10
-11 -10 -5 0 -7 5 -4 10 3 6 8 10 11 10 2 0 4 -4 4 -10z"/>
<path d="M761 466 c-9 -10 -9 -16 -1 -21 8 -5 5 -11 -7 -21 -25 -18 -34 -17
-26 4 4 13 3 14 -6 6 -16 -15 -3 -44 16 -37 11 4 14 3 9 -6 -5 -7 -2 -26 4
-42 10 -24 15 -27 27 -18 10 9 17 9 25 1 19 -19 38 6 38 49 0 21 -4 40 -10 44
-5 3 -6 13 -3 21 11 30 -44 46 -66 20z m9 -86 c0 -5 -5 -10 -11 -10 -5 0 -7 5
-4 10 3 6 8 10 11 10 2 0 4 -4 4 -10z"/>
<path d="M1092 471 c-8 -4 -12 -15 -10 -23 2 -9 -8 -25 -22 -37 l-25 -22 25 7
c20 6 23 4 14 -7 -8 -9 -9 -22 -3 -38 7 -18 14 -22 33 -17 14 3 28 1 32 -5 4
-8 12 -2 21 15 15 29 9 86 -9 86 -7 0 -7 4 1 13 21 26 -25 49 -57 28z m0 -103
c-7 -7 -12 -8 -12 -2 0 14 12 26 19 19 2 -3 -1 -11 -7 -17z"/>
<path d="M60 449 c0 -5 5 -7 10 -4 6 3 10 8 10 11 0 2 -4 4 -10 4 -5 0 -10 -5
-10 -11z"/>
<path d="M380 449 c0 -5 5 -7 10 -4 6 3 10 8 10 11 0 2 -4 4 -10 4 -5 0 -10
-5 -10 -11z"/>
<path d="M700 449 c0 -5 5 -7 10 -4 6 3 10 8 10 11 0 2 -4 4 -10 4 -5 0 -10
-5 -10 -11z"/>
<path d="M1020 450 c0 -5 5 -10 10 -10 6 0 10 5 10 10 0 6 -4 10 -10 10 -5 0
-10 -4 -10 -10z"/>
<path d="M75 430 c-3 -5 -2 -10 4 -10 5 0 13 5 16 10 3 6 2 10 -4 10 -5 0 -13
-4 -16 -10z"/>
<path d="M397 433 c-4 -3 -7 -11 -7 -17 0 -6 5 -5 12 2 6 6 9 14 7 17 -3 3 -9
2 -12 -2z"/>
<path d="M1039 423 c-13 -16 -12 -17 4 -4 16 13 21 21 13 21 -2 0 -10 -8 -17
-17z"/>
<path d="M271 134 c0 -11 3 -14 6 -6 3 7 2 16 -1 19 -3 4 -6 -2 -5 -13z"/>
<path d="M590 141 c0 -6 4 -13 10 -16 6 -3 7 1 4 9 -7 18 -14 21 -14 7z"/>
<path d="M1230 136 c0 -8 4 -17 9 -20 5 -4 7 3 4 14 -6 23 -13 26 -13 6z"/>
<path d="M910 131 c0 -5 5 -13 10 -16 6 -3 10 -2 10 4 0 5 -4 13 -10 16 -5 3
-10 2 -10 -4z"/>
<path d="M580 110 c0 -5 5 -10 11 -10 5 0 7 5 4 10 -3 6 -8 10 -11 10 -2 0 -4
-4 -4 -10z"/>
<path d="M77 103 c-13 -12 -7 -51 8 -57 8 -3 15 -15 15 -26 0 -26 16 -26 23 0
7 27 53 27 69 0 17 -27 25 -25 32 6 10 39 -17 64 -70 64 -24 0 -46 5 -49 10
-7 12 -19 13 -28 3z m30 -26 c-6 -19 -23 -18 -24 2 -1 14 3 18 13 14 8 -3 13
-10 11 -16z"/>
<path d="M397 103 c-13 -13 -7 -53 8 -53 9 0 15 -9 15 -25 0 -30 16 -33 23 -4
4 16 12 20 39 17 23 -2 33 -8 32 -19 -1 -9 5 -16 12 -16 8 0 14 6 14 14 0 7 5
13 10 13 6 0 10 6 10 14 0 24 -42 46 -87 46 -24 0 -43 5 -43 10 0 11 -23 14
-33 3z m28 -23 c0 -7 -5 -15 -10 -17 -6 -2 -11 6 -11 17 0 11 5 19 11 17 5 -2
10 -10 10 -17z"/>
<path d="M717 103 c-13 -12 -7 -51 8 -57 8 -3 15 -15 15 -26 0 -11 5 -20 10
-20 6 0 10 7 10 15 0 11 11 15 40 15 29 0 40 -4 40 -15 0 -8 5 -15 10 -15 6 0
10 7 10 15 0 8 5 15 11 15 6 0 8 9 4 21 -5 16 -4 19 5 14 7 -5 11 -4 7 1 -3 5
-31 10 -64 12 -32 2 -65 10 -74 18 -17 16 -23 17 -32 7z m30 -26 c-6 -19 -23
-18 -24 2 -1 14 3 18 13 14 8 -3 13 -10 11 -16z"/>
<path d="M1037 103 c-13 -12 -7 -51 8 -57 8 -3 15 -14 15 -24 0 -10 6 -19 14
-19 8 0 12 6 9 14 -4 9 6 13 37 13 33 0 41 -3 36 -15 -9 -25 18 -16 30 10 16
33 -7 53 -64 56 -24 2 -48 9 -54 16 -12 14 -21 16 -31 6z m30 -26 c-6 -19 -23
-18 -24 2 -1 14 3 18 13 14 8 -3 13 -10 11 -16z"/>
</g>
</svg>
